<svg width="210" height="68" viewBox="0 0 210 68" fill="none" xmlns="http://www.w3.org/2000/svg">
<path fill-rule="evenodd" clip-rule="evenodd" d="M0 29.7082V0H55.8615V16.7381L34.4529 9.74624C30.1682 8.34692 25.7669 11.5409 25.7687 16.0483L25.7817 48.6607C25.7823 50.2107 24.3601 51.3709 22.8418 51.0588L0.863745 46.5418C0.299777 44.3292 0 42.0111 0 39.623V36.0438L12.3539 21.9702C13.5175 20.6445 15.605 20.7215 16.6679 22.1292C17.4725 23.1949 17.4071 24.6817 16.5121 25.6727L7.02494 36.1771C5.05781 38.3552 6.30894 41.8467 9.21168 42.2797L20.4614 43.9578C21.6029 44.1281 22.6664 43.3408 22.8366 42.1992C23.0069 41.0577 22.2196 39.9943 21.0781 39.824L10.7541 38.2839L19.6139 28.4741C21.8526 25.9954 22.0161 22.2764 20.0035 19.6108C17.345 16.0895 12.1235 15.897 9.21276 19.2129L0 29.7082ZM2.47812 51.1405C6.86554 60.82 16.6122 67.5537 27.9298 67.5537C43.3572 67.5537 55.8615 55.0475 55.8615 39.623V37.1454L46.6646 46.0721C43.3604 49.2792 37.9553 48.6958 35.4116 44.8575C33.3373 41.7274 33.954 37.5374 36.8421 35.1378L45.5034 27.9416L35.9218 24.7849C34.8256 24.4238 34.2298 23.2424 34.5909 22.1462C34.952 21.05 36.1335 20.4541 37.2297 20.8152L47.6719 24.2554C50.4165 25.1597 51.094 28.7306 48.8714 30.5773L39.5131 38.3526C38.2663 39.3885 38.0001 41.1974 38.8956 42.5486C39.9937 44.2056 42.3271 44.4575 43.7536 43.073L55.8615 31.3207V21.135L33.1553 13.7193C31.573 13.2025 29.9476 14.3821 29.9483 16.0466L29.9613 48.659C29.963 52.8563 26.1117 55.9978 22.0004 55.1528L2.47812 51.1405Z" fill="#F56D3B"/>
<path d="M88.9098 30.9479C87.5812 30.9479 86.3812 30.7154 85.31 30.2504C84.2471 29.777 83.371 29.1044 82.6817 28.2325C82.0008 27.3522 81.569 26.3059 81.3863 25.0935L84.9238 24.5703C85.173 25.6 85.6878 26.3931 86.4684 26.9495C87.249 27.5058 88.1375 27.784 89.134 27.784C89.6904 27.784 90.2302 27.6968 90.7533 27.5225C91.2765 27.3481 91.7042 27.0906 92.0363 26.7502C92.3768 26.4097 92.547 25.9903 92.547 25.4921C92.547 25.3094 92.518 25.135 92.4598 24.9689C92.41 24.7945 92.3228 24.6326 92.1983 24.4831C92.0737 24.3337 91.8952 24.1925 91.6626 24.0596C91.4384 23.9268 91.1519 23.8064 90.8032 23.6984L86.1446 22.3282C85.7958 22.2286 85.3889 22.0874 84.9238 21.9047C84.4671 21.722 84.0229 21.4604 83.591 21.12C83.1592 20.7795 82.798 20.3311 82.5073 19.7747C82.225 19.21 82.0838 18.5 82.0838 17.6447C82.0838 16.4406 82.3869 15.44 82.9931 14.6428C83.5993 13.8456 84.409 13.2518 85.4221 12.8615C86.4352 12.4712 87.5563 12.2802 88.7853 12.2885C90.0226 12.3051 91.127 12.5169 92.0986 12.9238C93.0702 13.3307 93.884 13.9245 94.54 14.705C95.196 15.4773 95.6694 16.424 95.96 17.5451L92.2979 18.1679C92.165 17.5866 91.9201 17.0966 91.563 16.698C91.2059 16.2994 90.7783 15.9963 90.28 15.7887C89.7901 15.5811 89.2752 15.469 88.7354 15.4524C88.204 15.4358 87.7016 15.5105 87.2282 15.6766C86.7632 15.8344 86.3812 16.0669 86.0823 16.3742C85.7916 16.6814 85.6463 17.0468 85.6463 17.4703C85.6463 17.8606 85.7667 18.1803 86.0075 18.4294C86.2484 18.6703 86.5515 18.8654 86.9168 19.0149C87.2822 19.1644 87.6559 19.2889 88.0379 19.3886L91.1519 20.2356C91.617 20.3601 92.1318 20.5262 92.6965 20.7338C93.2612 20.9331 93.801 21.2155 94.3158 21.5809C94.839 21.9379 95.2666 22.4113 95.5988 23.0009C95.9393 23.5905 96.1095 24.3378 96.1095 25.243C96.1095 26.2063 95.9061 27.0491 95.4991 27.7716C95.1006 28.4857 94.5608 29.0795 93.8798 29.5528C93.1989 30.0178 92.4266 30.3666 91.563 30.5991C90.7077 30.8316 89.8233 30.9479 88.9098 30.9479ZM99.5947 30.5742L105.075 12.6373H110.133L115.613 30.5742H112.126L107.243 14.7549H107.891L103.082 30.5742H99.5947ZM102.883 26.8374V23.6735H112.35V26.8374H102.883ZM119.839 30.5742V12.6373H127.412C127.587 12.6373 127.819 12.6456 128.11 12.6622C128.409 12.6705 128.675 12.6954 128.907 12.737C129.978 12.903 130.854 13.256 131.535 13.7957C132.225 14.3355 132.731 15.0164 133.055 15.8386C133.379 16.6524 133.541 17.5617 133.541 18.5665C133.541 20.0695 133.167 21.3566 132.42 22.4279C131.672 23.4908 130.501 24.1468 128.907 24.396L127.412 24.4956H123.227V30.5742H119.839ZM129.953 30.5742L126.416 23.2749L129.904 22.6023L133.79 30.5742H129.953ZM123.227 21.3317H127.263C127.437 21.3317 127.628 21.3234 127.836 21.3068C128.043 21.2902 128.234 21.257 128.409 21.2072C128.866 21.0826 129.218 20.875 129.468 20.5844C129.717 20.2854 129.887 19.9574 129.978 19.6003C130.078 19.2349 130.128 18.8903 130.128 18.5665C130.128 18.2426 130.078 17.9021 129.978 17.5451C129.887 17.1797 129.717 16.8517 129.468 16.561C129.218 16.2621 128.866 16.0503 128.409 15.9257C128.234 15.8759 128.043 15.8427 127.836 15.8261C127.628 15.8095 127.437 15.8012 127.263 15.8012H123.227V21.3317ZM137.276 30.5742L142.756 12.6373H147.814L153.294 30.5742H149.807L144.924 14.7549H145.571L140.763 30.5742H137.276ZM140.564 26.8374V23.6735H150.031V26.8374H140.564ZM163.809 30.9479C162.481 30.9479 161.281 30.7154 160.21 30.2504C159.147 29.777 158.271 29.1044 157.581 28.2325C156.9 27.3522 156.469 26.3059 156.286 25.0935L159.823 24.5703C160.073 25.6 160.587 26.3931 161.368 26.9495C162.149 27.5058 163.037 27.784 164.034 27.784C164.59 27.784 165.13 27.6968 165.653 27.5225C166.176 27.3481 166.604 27.0906 166.936 26.7502C167.276 26.4097 167.447 25.9903 167.447 25.4921C167.447 25.3094 167.418 25.135 167.359 24.9689C167.31 24.7945 167.222 24.6326 167.098 24.4831C166.973 24.3337 166.795 24.1925 166.562 24.0596C166.338 23.9268 166.052 23.8064 165.703 23.6984L161.044 22.3282C160.695 22.2286 160.288 22.0874 159.823 21.9047C159.367 21.722 158.922 21.4604 158.491 21.12C158.059 20.7795 157.698 20.3311 157.407 19.7747C157.125 19.21 156.983 18.5 156.983 17.6447C156.983 16.4406 157.287 15.44 157.893 14.6428C158.499 13.8456 159.309 13.2518 160.322 12.8615C161.335 12.4712 162.456 12.2802 163.685 12.2885C164.922 12.3051 166.027 12.5169 166.998 12.9238C167.97 13.3307 168.784 13.9245 169.44 14.705C170.096 15.4773 170.569 16.424 170.86 17.5451L167.198 18.1679C167.065 17.5866 166.82 17.0966 166.463 16.698C166.106 16.2994 165.678 15.9963 165.18 15.7887C164.69 15.5811 164.175 15.469 163.635 15.4524C163.104 15.4358 162.601 15.5105 162.128 15.6766C161.663 15.8344 161.281 16.0669 160.982 16.3742C160.691 16.6814 160.546 17.0468 160.546 17.4703C160.546 17.8606 160.666 18.1803 160.907 18.4294C161.148 18.6703 161.451 18.8654 161.816 19.0149C162.182 19.1644 162.556 19.2889 162.938 19.3886L166.052 20.2356C166.517 20.3601 167.031 20.5262 167.596 20.7338C168.161 20.9331 168.701 21.2155 169.215 21.5809C169.739 21.9379 170.166 22.4113 170.498 23.0009C170.839 23.5905 171.009 24.3378 171.009 25.243C171.009 26.2063 170.806 27.0491 170.399 27.7716C170 28.4857 169.46 29.0795 168.779 29.5528C168.099 30.0178 167.326 30.3666 166.463 30.5991C165.607 30.8316 164.723 30.9479 163.809 30.9479ZM181.475 30.5742L186.955 12.6373H192.013L197.493 30.5742H194.006L189.123 14.7549H189.77L184.962 30.5742H181.475ZM184.763 26.8374V23.6735H194.23V26.8374H184.763ZM201.968 30.5742V12.6373H205.356V30.5742H201.968Z" fill="#F56D3B"/>
<path d="M81.7413 56.2646V46.579H82.9385V56.2646H81.7413ZM92.7591 56.2646V46.579H93.9698L99.0211 54.1459V46.579H100.232V56.2646H99.0211L93.9698 48.691V56.2646H92.7591ZM113.352 56.4664C112.666 56.4664 112.047 56.3498 111.496 56.1167C110.949 55.8835 110.496 55.5517 110.137 55.1212C109.783 54.6862 109.552 54.1728 109.444 53.5809L110.682 53.3859C110.839 53.9957 111.164 54.4732 111.657 54.8185C112.155 55.1593 112.74 55.3297 113.413 55.3297C113.848 55.3297 114.24 55.2625 114.59 55.1279C114.944 54.9889 115.224 54.7916 115.43 54.536C115.637 54.2804 115.74 53.9778 115.74 53.628C115.74 53.4128 115.702 53.2289 115.625 53.0764C115.554 52.9195 115.453 52.7872 115.323 52.6796C115.197 52.5675 115.054 52.4733 114.892 52.3971C114.731 52.3209 114.563 52.2581 114.388 52.2088L111.919 51.4756C111.65 51.3949 111.39 51.294 111.139 51.1729C110.888 51.0474 110.664 50.8927 110.467 50.7088C110.269 50.5205 110.112 50.2963 109.996 50.0362C109.879 49.7717 109.821 49.46 109.821 49.1013C109.821 48.5273 109.969 48.0386 110.265 47.635C110.565 47.2269 110.971 46.9153 111.482 46.7C111.993 46.4848 112.57 46.3794 113.211 46.3839C113.861 46.3884 114.442 46.505 114.953 46.7337C115.469 46.9579 115.895 47.2807 116.231 47.7022C116.572 48.1237 116.8 48.6282 116.917 49.2156L115.646 49.4376C115.578 49.043 115.428 48.7044 115.195 48.4219C114.966 48.135 114.679 47.9152 114.334 47.7628C113.989 47.6058 113.61 47.5251 113.197 47.5206C112.803 47.5162 112.446 47.5789 112.128 47.709C111.81 47.839 111.556 48.0206 111.368 48.2538C111.179 48.4825 111.085 48.747 111.085 49.0475C111.085 49.3434 111.171 49.5833 111.341 49.7672C111.511 49.9465 111.72 50.09 111.966 50.1976C112.218 50.3008 112.462 50.386 112.7 50.4532L114.543 50.9846C114.753 51.0429 114.995 51.1236 115.269 51.2268C115.547 51.3299 115.816 51.4756 116.076 51.664C116.336 51.8478 116.551 52.0944 116.722 52.4038C116.892 52.7088 116.977 53.0944 116.977 53.5607C116.977 54.0271 116.883 54.4419 116.695 54.8051C116.511 55.1683 116.253 55.4732 115.921 55.7198C115.59 55.962 115.204 56.1458 114.765 56.2714C114.325 56.4014 113.854 56.4664 113.352 56.4664ZM128.686 56.2646V47.7157H125.384V46.579H133.186V47.7157H129.883V56.2646H128.686ZM142.194 56.2646V46.579H143.391V56.2646H142.194ZM155.707 56.2646V47.7157H152.404V46.579H160.207V47.7157H156.904V56.2646H155.707ZM172.9 56.4664C172.152 56.4664 171.49 56.3117 170.916 56.0023C170.342 55.6929 169.892 55.2602 169.564 54.7042C169.241 54.1437 169.08 53.4867 169.08 52.7334V46.5857L170.291 46.579V52.6325C170.291 53.0899 170.367 53.489 170.519 53.8298C170.676 54.1661 170.883 54.4463 171.138 54.6705C171.394 54.8948 171.674 55.0629 171.979 55.175C172.288 55.2826 172.596 55.3364 172.9 55.3364C173.21 55.3364 173.519 55.2804 173.829 55.1683C174.138 55.0562 174.418 54.8903 174.669 54.6705C174.925 54.4463 175.129 54.1638 175.282 53.8231C175.434 53.4823 175.51 53.0854 175.51 52.6325V46.579H176.721V52.7334C176.721 53.4823 176.557 54.1369 176.23 54.6975C175.907 55.258 175.459 55.6929 174.885 56.0023C174.311 56.3117 173.649 56.4664 172.9 56.4664ZM188.902 56.2646V47.7157H185.6V46.579H193.402V47.7157H190.099V56.2646H188.902ZM202.275 56.2646V46.579H208.396V47.7157H203.472V50.7492H207.589V51.8859H203.472V55.1279H208.396V56.2646H202.275Z" fill="#F56D3B"/>
</svg>
